<svg xmlns="http://www.w3.org/2000/svg" xmlns:xlink="http://www.w3.org/1999/xlink" viewBox="0 0 3840 2160"><defs><clipPath id="clip-path"><rect width="3840" height="2160" style="fill:none"/></clipPath><linearGradient id="Áåçûìÿííûé_ãðàäèåíò_13" x1="1920" x2="1920" y1="745" gradientUnits="userSpaceOnUse"><stop offset="0" stop-color="#e2e2e2"/><stop offset="1"/></linearGradient><linearGradient xlink:href="#Áåçûìÿííûé_ãðàäèåíò_13" id="Áåçûìÿííûé_ãðàäèåíò_13-2" x1="1920" x2="1920" y1="736" y2="2160"/></defs><g style="isolation:isolate"><g id="Ñëîé_1" data-name="Ñëîé 1" style="clip-path:url(#clip-path)"><rect width="3840" height="2160" style="fill:#0b002e"/><path d="M3840.5 1848.2a1 1 0 0 1-.57-.18l-128.72-89.7-490.84-1.56-978.52-3.11L.5 1746.53a1 1 0 0 1 0-2h0l3711 11.79a1 1 0 0 1 .57.18l129 89.88A1 1 0 0 1 3840.5 1848.2ZM3840.5 1562a1 1 0 0 1-.48-.12l-142.36-77.52-380.65-.94L.5 1475.24a1 1 0 0 1-1-1 1 1 0 0 1 1-1l3697.42 9.11a1 1 0 0 1 .48.12L3841 1560.12A1 1 0 0 1 3840.5 1562ZM3840.5 1378.46a1 1 0 0 1-.41-.09l-151-67.48-310.86-.62-310.59-.63-310.06-.62-618.64-1.25-308.57-.62-615.65-1.24-307.08-.62-612.68-1.23L.5 1303.48a1 1 0 0 1 0-2h0L601 1302.69l306.59.62 614.66 1.23 308.07.62L2448 1306.4l309.57.62 310.06.62 310.59.63 311.07.62a1 1 0 0 1 .41.09l151.2 67.57A1 1 0 0 1 3840.5 1378.46ZM2987.05 2161a1 1 0 0 1-.85-.47l-125.7-198.82-1709.35-6.35L585 1953.27 383.09 2160.7a1 1 0 1 1-1.43-1.39l202.21-207.74a1 1 0 0 1 .72-.3h0l2276.48 8.46a1 1 0 0 1 .84.47l126 199.28A1 1 0 0 1 2987.05 2161Z" style="fill:#f0f"/><path d="M1033.54,2161a1,1,0,0,1-.87-1.5L1844.79,739.69a1,1,0,0,1,.84-0.5l81.65-2.4,80.32,0a1,1,0,0,1,0,2h0l-80.29,0-81.06,2.38L1034.41,2160.5A1,1,0,0,1,1033.54,2161Z" style="fill:#f0f"/><path d="M3840.5 1084.7a1 1 0 0 1-.28 0l-56.37-16.38L.5 1063.07a1 1 0 0 1 0-2h0l3783.5 5.21a1 1 0 0 1 .28 0l56.5 16.42A1 1 0 0 1 3840.5 1084.7ZM3840.5 1156.77a1 1 0 0 1-.31 0L3803 1144.48l-3802.46-6a1 1 0 0 1 0-2h0l3802.62 6a1 1 0 0 1 .31 0l37.38 12.29A1 1 0 0 1 3840.5 1156.77Z" style="fill:#f0f"/><path d="M3840.5,1311.2h0l-151.2-.3a1,1,0,0,1-.41-0.09l-145.76-65.13L3223.62,1102.9,3144,1067.32,2470.12,766.2l-1093.32-.65L0.86,1299.06a1,1,0,1,1-.72-1.87L1376.25,763.62a0.79,0.79,0,0,1,.36-0.07l1093.71,0.65a1,1,0,0,1,.41.09L3689.52,1308.9l151,0.3A1,1,0,0,1,3840.5,1311.2Z" style="fill:#f0f"/><path d="M3840.5 1250.76a1 1 0 0 1-.35-.06l-11.63-4.4-1138-2.1-283.48-.52L.5 1239.24a1 1 0 0 1 0-2h0l3828.2 7.05a1 1 0 0 1 .35.06l11.8 4.46A1 1 0 0 1 3840.5 1250.76ZM3840.5 911.06l-.2 0-22.93-4.54L.5 902.84a1 1 0 0 1 0-2h0l3817 3.65.19 0 23 4.56A1 1 0 0 1 3840.5 911.06Z" style="fill:#f0f"/><path d="M3840.5,1484.7h0l-142.58-.35a1,1,0,0,1-.48-0.12l-176.06-95.86L3157.47,1190.2l-789.8-430.06-886.92-.51L0.92,1439.19a1,1,0,0,1-.83-1.82l1480-679.65a1,1,0,0,1,.41-0.09h0l887.39,0.51a1,1,0,0,1,.48.12l1329.78,724.08,142.33,0.35A1,1,0,0,1,3840.5,1484.7Z" style="fill:#f0f"/><path d="m3840.5 943.22-.21 0-7-1.51L.5 937.67a1 1 0 0 1 0-2h0l3832.91 4 .21 0 7.09 1.53A1 1 0 0 1 3840.5 943.22ZM3840.5 1389.19h0l-3840-8.5a1 1 0 0 1 0-2h0L1478 1382l339.13.75 1362.55 3 660.82 1.47A1 1 0 0 1 3840.5 1389.19ZM3840.5 984.32h0L.5 979.87a1 1 0 0 1 0-2h0l3840 4.45A1 1 0 0 1 3840.5 984.32ZM110.74 837.7h0L.5 837.61a1 1 0 0 1 0-2h0l110.15.09 63.65-10.28h.16l115.26.09 55.58-9.6a.37.37 0 0 1 .17 0L457 816l48.4-9 .18 0 108 .07 42-8.42.2 0 104.65.07 36.28-7.91a.5.5 0 0 1 .21 0l101.53.07 31.15-7.45.23 0 98.59.06 26.54-7a1 1 0 0 1 .26 0L1151 776.4l22.38-6.62a1.9 1.9 0 0 1 .28 0l93.17.06 18.63-6.25a1 1 0 0 1 .32-.05l90.67.05 15.23-5.9a1 1 0 0 1 .36-.07l88.29.05 12.15-5.58a1 1 0 0 1 .42-.09h0l86 0 9.34-5.26a1 1 0 0 1 .49-.13l83.84 0 6.79-4.94a1 1 0 0 1 .59-.19h0l164.32.09a1 1 0 0 1 0 2h0l-164-.09-6.79 4.94a1 1 0 0 1-.59.19l-83.9 0-9.34 5.26a1.9 1.9 0 0 1-.49.13l-86.07 0-12.15 5.58a1 1 0 0 1-.42.09l-88.32-.05-15.23 5.9a1 1 0 0 1-.36.07l-90.7-.05-18.63 6.25a1 1 0 0 1-.32.05l-93.19-.06-22.38 6.62a1 1 0 0 1-.28 0l-95.82-.06-26.54 7a1 1 0 0 1-.26 0l-98.6-.06-31.15 7.45-.23 0L797 792.73l-36.28 7.91-.21 0-104.66-.07-42 8.42-.2 0-108-.07-48.4 9-.18 0-111.5-.08L290 827.48h-.17l-115.26-.09-63.65 10.28h-.16Z" style="fill:#f0f"/><path d="M3840.5,1758.72h0l-129-.41a1,1,0,0,1-.57-0.18l-222.33-154.91-172.18-120-137.33-95.69L2262.75,749l-168.49-.09-83.69,2.65-85.86,2.65L1579.42,754,1,1642.65a1,1,0,1,1-1-1.74L1578.67,752.14a1,1,0,0,1,.49-0.13l345.52,0.2,85.82-2.65,83.72-2.65L2263.07,747a1,1,0,0,1,.57.18l1448.2,1009.14,128.67,0.41A1,1,0,0,1,3840.5,1758.72Z" style="fill:#f0f"/><path d="M3840.5,1068.37h0l-56.5-.08a1,1,0,0,1-.28,0l-969.65-281.7-1785.44-1.16L0.76,1057.08a1,1,0,1,1-.51-1.93l1028-271.72a1,1,0,0,1,.26,0l1785.71,1.16a1,1,0,0,1,.28,0l969.65,281.7,56.36,0.08A1,1,0,0,1,3840.5,1068.37Z" style="fill:#f0f"/><path d="M3840.5 863.93h0L.5 860.68a1 1 0 0 1 0-2h0l3840 3.25A1 1 0 0 1 3840.5 863.93ZM3840.5 1037h0l-3840-5a1 1 0 0 1 0-2h0l3840 5A1 1 0 0 1 3840.5 1037ZM3840.5 1604.38h0l-779.86-2.16L2633 1601l-852.38-2.36-424.77-1.18L932 1596.31.5 1593.72a1 1 0 0 1 0-2h0l3840 10.65A1 1 0 0 1 3840.5 1604.38ZM3840.5 840.63h0l-113.73-.09h-.17l-61.25-10.47L3548 830l-.18 0-53.17-9.76-113.28-.08-.19 0-46-9.11-109.52-.08-.21 0-39.65-8.53-106-.07-.23 0-34-8-102.68-.07a1 1 0 0 1-.25 0l-28.9-7.52-99.57-.07a1 1 0 0 1-.28 0l-24.35-7.07-96.64-.06a1 1 0 0 1-.31-.05l-20.26-6.66-93.86-.06a1 1 0 0 1-.35-.06l-16.58-6.28-91.25-.05a1 1 0 0 1-.41-.09l-13.25-5.92-88.75-.05a1 1 0 0 1-.48-.12l-10.24-5.57-346-.2a1 1 0 0 1 0-2h0l346.3.2a1 1 0 0 1 .48.12l10.24 5.57 88.71.05a1 1 0 0 1 .41.09l13.25 5.92 91.21.05a1 1 0 0 1 .35.07l16.58 6.28 93.84.06a1 1 0 0 1 .31.05l20.26 6.66 96.62.06a1 1 0 0 1 .28 0l24.35 7.07 99.55.07a1 1 0 0 1 .25 0l28.9 7.52 102.67.07.23 0 34 8 106 .07.21 0 39.65 8.53L3335.27 809l.19 0 46 9.11 113.27.08.18 0L3548.1 828l117.33.09h.17l61.25 10.47 113.64.09A1 1 0 0 1 3840.5 840.63ZM86.83 792.26.5 792.2a1 1 0 0 1 0-2h0l86.27.06 55-7.43h.13l98.24.07 49-7h.14l95.49.06 43.66-6.62h.15l92.89.06 38.8-6.27h.16l90.43.05 34.37-5.94h.17l88.09.05 30.35-5.63.18 0 85.87 0 26.68-5.35.2 0 83.76 0 23.33-5.09.21 0 163.63.09 18.3-4.84a1 1 0 0 1 .51 1.93l-18.43 4.87a1 1 0 0 1-.26 0l-163.65-.09-23.33 5.09-.21 0-83.77 0-26.68 5.35-.2 0-85.88 0-30.35 5.63a.55.55 0 0 1-.18 0l-88.1-.05-34.37 5.94h-.17l-90.44-.05-38.8 6.27h-.16l-92.9-.06L385 777.91h-.15l-95.5-.06-49 7h-.14l-98.24-.07-55 7.43H86.83Z" style="fill:#f0f"/><path d="M3840.5 906.52h0l-23 0-.19 0-436-86.37L457.15 818 .68 902.66a1 1 0 0 1-.37-2L456.87 816l.18 0 2924.33 2.14.19 0 436 86.37 22.93 0A1 1 0 0 1 3840.5 906.52ZM3840.5 744.7h-13.41l-44.68-4.93-81 0a1 1 0 0 1 0-2h0l81 0h.11l44.68 4.93h13.25A1 1 0 0 1 3840.5 744.7Z" style="fill:#f0f"/><path d="M3840.5,746.16h-0.11l-13.25-1.46-83,0h-0.11l-42.7-4.93-80.95,0a1,1,0,0,1,0-2h0l81,0h0.11l42.7,4.93,83,0h0.11l13.3,1.47A1,1,0,0,1,3840.5,746.16Z" style="fill:#f0f"/><path d="M3840.5,749.86h0l-51.43,0H3789l-44.83-5.18-83,0H3661l-40.68-4.93-80.88,0a1,1,0,0,1,0-2h0l80.94,0h0.12l40.68,4.93,83,0h0.11l44.83,5.18,51.37,0A1,1,0,0,1,3840.5,749.86Z" style="fill:#f0f"/><path d="M3840.5,755.28h-4.35L3789,749.83l-85.06,0h-0.12l-42.72-5.17-82.9,0h-0.12l-38.67-4.92-80.88,0a1,1,0,0,1,0-2h0l80.94,0h0.13l38.67,4.92,82.89,0h0.12l42.72,5.17,85.06,0h0.11l47.14,5.45h4.18A1,1,0,0,1,3840.5,755.28Z" style="fill:#f0f"/><path d="M3840.5,755.77h-0.12l-4.18-.48-87.25-.05h-0.12l-44.95-5.44-85,0h-0.12l-40.62-5.17-82.86,0h-0.13l-36.68-4.92-80.82,0a1,1,0,0,1,0-2h0l80.88,0h0.13l36.68,4.92,82.86,0h0.13l40.62,5.17,85,0h0.12l44.95,5.44,87.25,0.05h0.11l4.23,0.49A1,1,0,0,1,3840.5,755.77Z" style="fill:#f0f"/><path d="M3840.5,761h0l-44.13,0h-0.12l-47.35-5.73-87.19,0h-0.12l-42.75-5.44-84.93,0h-0.13l-38.54-5.17-82.83,0h-0.14l-34.67-4.92-80.81,0a1,1,0,0,1,0-2h0l80.88,0h0.14l34.67,4.92,82.83,0h0.13l38.54,5.17,84.93,0H3619l42.75,5.44,87.19,0h0.12l47.35,5.73,44.08,0A1,1,0,0,1,3840.5,761Z" style="fill:#f0f"/><path d="M3840.5 766.31h-.12L3796.3 761l-89.53-.05h-.12l-45-5.73-87.19-.05h-.13l-40.5-5.43-84.93 0h-.14l-36.44-5.17-82.79 0h-.15l-32.68-4.91-80.75 0a1 1 0 0 1 0-2h0l80.82 0h.15l32.68 4.91 82.79 0h.14l36.44 5.17 84.93 0H3534l40.5 5.43 87.18.05h.13l45 5.73 89.53.05h.12l44.13 5.34A1 1 0 0 1 3840.5 766.31ZM3840.5 891.13h0L.5 887.61a1 1 0 0 1 0-2h0l3840 3.52A1 1 0 0 1 3840.5 891.13Z" style="fill:#f0f"/><path d="M3840.5,767h0l-86.23-.05h-0.12l-47.43-6-89.5-.05h-0.13l-42.69-5.73-87.09,0h-0.14l-38.33-5.43-84.87,0h-0.15l-34.36-5.16-82.73,0h-0.16l-30.7-4.91-80.71,0a1,1,0,0,1,0-2h0l80.79,0h0.16l30.7,4.91,82.72,0h0.15L3364,747.6l84.86,0H3449l38.33,5.43,87.09,0h0.13l42.69,5.73,89.49,0.05h0.13l47.43,6L3840.5,765A1,1,0,0,1,3840.5,767Z" style="fill:#f0f"/><path d="M3840.5,773.37h0l-36.06,0h-0.12L3754.21,767l-91.93-.05h-0.13l-45-6-89.43-.05h-0.14l-40.34-5.72-87.09,0H3400l-36.1-5.43-84.83,0h-0.16l-32.26-5.16-82.7,0h-0.17l-28.71-4.91-80.68,0a1,1,0,0,1,0-2h0l80.76,0h0.17l28.71,4.91,82.69,0h0.16l32.26,5.16,84.83,0h0.15l36.1,5.43,87.08,0h0.14l40.34,5.72,89.43,0.05h0.13l45,6,91.93,0.05h0.13l50.11,6.38,36,0A1,1,0,0,1,3840.5,773.37Z" style="fill:#f0f"/><path d="M3840.5,777.94h-0.13l-36-4.58-94.51-.06h-0.13l-47.52-6.37-91.9-.05h-0.14l-42.53-6-89.4-.05h-0.15l-38-5.71-87-.05h-0.16L3279,749.55l-84.8,0H3194l-30.15-5.15-82.66,0-0.18,0-26.72-4.9-80.64,0a1,1,0,0,1,0-2h0l80.73,0,0.18,0,26.72,4.9,82.65,0h0.17l30.15,5.15,84.79,0h0.16l33.91,5.42,87,0.05h0.15l38,5.71,89.4,0.05h0.14l42.53,6,91.89,0.05h0.13l47.52,6.37,94.51,0.06h0.13l36.06,4.59A1,1,0,0,1,3840.5,777.94Z" style="fill:#f0f"/><path d="M3840.5,780.1h0l-80.28-.05h-0.13l-50.28-6.74-94.48-.06h-0.14l-44.94-6.37-91.83-.06h-0.15l-40.1-6-89.34-.05h-0.16L3313,755l-87,0h-0.17l-31.71-5.42-84.76,0-0.18,0-28-5.15-82.63,0-0.19,0-24.72-4.9-80.59,0a1,1,0,0,1,0-2h0l80.69,0,0.19,0,24.72,4.9,82.63,0,0.18,0,28,5.15,84.76,0h0.17l31.71,5.42,87,0h0.16l35.71,5.71,89.33,0.05h0.15l40.1,6,91.83,0.06h0.14l44.94,6.37,94.47,0.06H3710l50.28,6.74,80.22,0.05A1,1,0,0,1,3840.5,780.1Z" style="fill:#f0f"/><path d="M3840.5,787.21h0l-27,0h-0.13L3760.15,780l-97.21-.06h-0.14l-47.55-6.74-94.41-.06h-0.15l-42.35-6.37-91.8-.05h-0.16l-37.63-6-89.3-.05h-0.17l-33.39-5.71-87,0-0.18,0-29.51-5.42-84.7,0-0.19,0-26-5.14-82.58,0-0.21,0-22.73-4.89-80.55,0a1,1,0,0,1,0-2h0l80.66,0,0.21,0,22.73,4.89,82.57,0,0.19,0,26,5.14,84.69,0,0.18,0,29.51,5.42,86.95,0h0.17l33.39,5.71,89.3,0.05H3349l37.63,6,91.79,0.05h0.15l42.35,6.37,94.41,0.06h0.14L3663,778l97.21,0.06h0.13l53.23,7.14,26.92,0A1,1,0,0,1,3840.5,787.21Z" style="fill:#f0f"/><path d="M3840.5,790.81h-0.13l-26.93-3.61-100.09-.06h-0.14L3662.87,780l-97.15-.06h-0.15l-44.81-6.73-94.35-.06h-0.16l-39.79-6.36-91.73-.05h-0.17l-35.19-6-89.27-.05-0.18,0-31.07-5.7-86.89-.05-0.19,0-27.31-5.41-84.67,0-0.21,0-23.88-5.14-82.53,0-0.23,0-20.74-4.89-80.51,0a1,1,0,0,1,0-2h0l80.63,0,0.23,0,20.74,4.89,82.52,0,0.21,0,23.88,5.14,84.66,0,0.19,0,27.32,5.41,86.88,0.05,0.18,0,31.07,5.7,89.26,0.05h0.17l35.19,6,91.73,0.05h0.16l39.79,6.36,94.35,0.06H3521l44.81,6.73,97.14,0.06h0.14l50.34,7.14,100.09,0.06h0.13l27,3.62A1,1,0,0,1,3840.5,790.81Z" style="fill:#f0f"/><path d="M3840.5,794.76h0l-73.65-.05h-0.14l-53.43-7.57-100.06-.07h-0.15l-47.42-7.13-97.11-.06h-0.16l-42-6.73-94.34-.06h-0.17l-37.18-6.36-91.7-.05-0.18,0-32.76-6-89.2-.05-0.19,0-28.76-5.7-86.87,0-0.21,0-25.11-5.41-84.61,0-0.23,0-21.79-5.13-82.49,0a1,1,0,0,1-.25,0l-18.75-4.88-80.46,0a1,1,0,0,1,0-2h0l80.59,0a1,1,0,0,1,.25,0l18.75,4.88,82.48,0,0.23,0,21.79,5.13,84.6,0,0.21,0,25.11,5.41,86.86,0,0.19,0,28.76,5.7,89.19,0.05,0.18,0,32.76,6,91.69,0.05h0.17l37.18,6.36,94.34,0.06h0.16l42,6.73,97.11,0.06h0.15l47.42,7.13,100.05,0.07h0.14l53.43,7.57,73.58,0.05A1,1,0,0,1,3840.5,794.76Z" style="fill:#f0f"/><path d="M3840.5,802.78h-16.92l-56.79-8.05-103.12-.07h-0.15l-50.37-7.57-100-.06H3513l-44.57-7.13-97-.06h-0.17l-39.34-6.72-94.25-.06-0.18,0-34.62-6.35-91.63-.05-0.19,0-30.32-6-89.17-.05-0.21,0-26.45-5.69-86.8,0-0.23,0-22.91-5.4-84.57,0a1,1,0,0,1-.25,0l-19.69-5.12-82.44,0a1,1,0,0,1-.28,0L2651,739.16l-80.41,0a1,1,0,0,1,0-2h0l80.56,0a1,1,0,0,1,.28,0l16.76,4.87,82.42,0a1,1,0,0,1,.25,0l19.69,5.12,84.56,0,0.23,0,22.91,5.4,86.79,0,0.21,0,26.45,5.69,89.16,0.05,0.19,0,30.32,6,91.63,0.05,0.18,0,34.62,6.35,94.24,0.06h0.17l39.34,6.72,97,0.06h0.16l44.57,7.13,100,0.06h0.15l50.37,7.57,103.12,0.07H3767l56.79,8.05h16.71A1,1,0,0,1,3840.5,802.78Z" style="fill:#f0f"/><path d="M3840.5,805.15h-0.14l-16.71-2.37-106.39-.07h-0.15l-53.52-8-103.06-.07h-0.16L3513.11,787l-99.93-.07H3413l-41.68-7.12-97-.06-0.18,0-36.6-6.71-94.21-.06-0.19,0-32-6.34-91.59-.05-0.21,0-27.88-6-89.11-.05-0.23,0L2878,754.74l-86.75-.05a1,1,0,0,1-.25,0l-20.72-5.39-84.52,0a1,1,0,0,1-.28,0l-17.6-5.12-82.39,0a1,1,0,0,1-.31-0.05l-14.76-4.86-80.36,0a1,1,0,0,1,0-2h0l80.52,0a1,1,0,0,1,.31.05l14.76,4.86,82.37,0a1,1,0,0,1,.28,0l17.6,5.12,84.51,0a1,1,0,0,1,.25,0l20.72,5.39,86.74,0.05,0.23,0,24.13,5.68,89.1,0.05,0.21,0,27.88,6,91.59,0.05,0.19,0,32,6.34,94.21,0.06,0.18,0,36.6,6.71,97,0.06h0.17l41.68,7.12,99.92,0.07h0.16l47.27,7.56,103.05,0.07h0.15l53.52,8,106.39,0.07h0.14l16.78,2.38A1,1,0,0,1,3840.5,805.15Z" style="fill:#f0f"/><path d="M3840.5,811.33h0l-66.14,0h-0.15l-57-8.57-106.3-.07h-0.16l-50.27-8-103-.07h-0.17l-44.2-7.56-99.89-.06-0.18,0-38.76-7.12-96.95-.06-0.19,0-33.86-6.71-94.18-.06-0.21,0-29.44-6.34-91.54-.06-0.23,0-25.45-6-89.06-.05a1,1,0,0,1-.25,0l-21.82-5.68-86.7,0a1,1,0,0,1-.28,0l-18.52-5.38-84.47,0a1,1,0,0,1-.31,0L2585.3,744,2503,744a1,1,0,0,1-.35-0.06l-12.77-4.84-80.31,0a1,1,0,0,1,0-2h0l80.49,0a1,1,0,0,1,.35.06l12.77,4.84,82.32,0a1,1,0,0,1,.31,0l15.51,5.1,84.45,0a1,1,0,0,1,.28,0l18.52,5.38,86.69,0a1,1,0,0,1,.25,0l21.82,5.68,89,0.05,0.23,0,25.45,6,91.53,0.06,0.21,0,29.44,6.34,94.17,0.06,0.19,0,33.86,6.71,96.94,0.06,0.18,0,38.76,7.12,99.89,0.06h0.17l44.2,7.56,103,0.07h0.16l50.27,8,106.29,0.07h0.15l57,8.57,66.07,0A1,1,0,0,1,3840.5,811.33Z" style="fill:#f0f"/><path d="M3840.5,820.44h-5.37l-60.85-9.14-109.81-.08h-0.16l-53.51-8.56-106.26-.07h-0.17l-47-8-102.93-.07-0.18,0-41.16-7.55-99.8-.07-0.19,0-35.9-7.11-96.88-.06-0.21,0L3049,772.89l-94.09-.06-0.23,0-26.87-6.33-91.48-.05a1,1,0,0,1-.25,0l-23-6-89-.05a1,1,0,0,1-.28,0l-19.5-5.67-86.65,0a1,1,0,0,1-.31,0L2601,749.18l-84.41,0a1,1,0,0,1-.35-0.06L2502.78,744l-82.28,0a1,1,0,0,1-.41-0.09L2409.32,739l-80.24,0a1,1,0,1,1,0-2h0l80.45,0a1,1,0,0,1,.41.09l10.77,4.81,82.25,0a1,1,0,0,1,.35.07l13.42,5.08,84.39,0a1,1,0,0,1,.31.05l16.32,5.37,86.63,0a1,1,0,0,1,.28,0l19.5,5.67,89,0.05a1,1,0,0,1,.25,0l23,6,91.47,0.05,0.23,0,26.88,6.33,94.08,0.06,0.21,0,31.15,6.71,96.87,0.06,0.19,0,35.9,7.11,99.79,0.07,0.18,0,41.16,7.55,102.92,0.07h0.17l47,8,106.26,0.07H3611l53.51,8.56,109.81,0.08h0.15l60.84,9.14h5.15A1,1,0,0,1,3840.5,820.44Z" style="fill:#f0f"/><path d="M3840.5,821.22h-0.15l-5.15-.78-113.5-.08h-0.16l-57.15-9.14-109.72-.08h-0.17l-50.06-8.56-106.2-.07-0.18,0-43.72-8-102.89-.07-0.19,0-38.06-7.54-99.76-.06-0.21,0-33-7.1-96.81-.06-0.23,0-28.43-6.7-94-.06a1,1,0,0,1-.25,0l-24.3-6.32-91.43-.05a1,1,0,0,1-.28,0l-20.57-6-88.95-.05a1,1,0,0,1-.31,0l-17.19-5.65-86.59-.05a1,1,0,0,1-.35-0.06l-14.12-5.35-84.35,0a1,1,0,0,1-.41-0.09l-11.33-5.06-82.21,0a1,1,0,0,1-.48-0.12l-8.77-4.78-80.17,0a1,1,0,0,1,0-2h0l80.42,0a1,1,0,0,1,.48.12l8.77,4.78,82.17,0a1,1,0,0,1,.41.09l11.33,5.06,84.32,0a1,1,0,0,1,.35.07l14.12,5.35,86.57,0.05a1,1,0,0,1,.31.05l17.19,5.65,88.93,0.05a1,1,0,0,1,.28,0l20.57,6,91.42,0.05a1,1,0,0,1,.25,0l24.3,6.32,94,0.06,0.23,0,28.43,6.7,96.8,0.06,0.21,0,33,7.1,99.75,0.06,0.19,0,38.06,7.54,102.88,0.07,0.18,0,43.72,8,106.19,0.07h0.17l50.06,8.56,109.71,0.08h0.16l57.15,9.14,113.5,0.08h0.15l5.22,0.79A1,1,0,0,1,3840.5,821.22Z" style="fill:#f0f"/><path d="M3840.5,830.18h0l-57.62,0h-0.16l-61.11-9.77-113.44-.08H3608l-53.42-9.13L3444.94,811l-0.18,0-46.6-8.55-106.1-.07-0.19,0-40.5-8-102.79-.07-0.21,0-35-7.53-99.69-.07-0.23,0-30.12-7.1-96.76-.06a1,1,0,0,1-.25,0l-25.7-6.69-94-.06a1,1,0,0,1-.28,0l-21.73-6.31-91.37-.05a1,1,0,0,1-.31-0.05l-18.13-6-88.89-.05a1,1,0,0,1-.35-0.06l-14.87-5.64-86.53,0a1,1,0,0,1-.41-0.09l-11.92-5.32-84.29,0a1,1,0,0,1-.48-0.12l-9.22-5-82.14,0a1,1,0,0,1-.57-0.18l-6.77-4.72-80.07,0a1,1,0,0,1,0-2h0l80.38,0a1,1,0,0,1,.57.18l6.77,4.72,82.08,0a1,1,0,0,1,.48.12l9.22,5,84.24,0a1,1,0,0,1,.41.09l11.92,5.32,86.5,0a1,1,0,0,1,.35.07l14.87,5.64,88.87,0.05a1,1,0,0,1,.31,0l18.13,6,91.35,0.05a1,1,0,0,1,.28,0l21.73,6.31,94,0.06a1,1,0,0,1,.25,0l25.7,6.69,96.75,0.06,0.23,0,30.12,7.09,99.68,0.07,0.21,0,35,7.53,102.78,0.07,0.19,0,40.5,8,106.1,0.07,0.18,0L3445,809l109.65,0.08h0.17l53.42,9.13,113.43,0.08h0.16l61.11,9.77,57.54,0A1,1,0,0,1,3840.5,830.18Z" style="fill:#f0f"/><path d="M3840.5 839.36h-.16l-57.54-9.2-117.37-.09h-.17l-57.17-9.77-113.34-.08-.18 0L3444.85 811 3335.26 811l-.19 0L3292 802.41l-106.07-.07-.21 0-37.21-8-102.75-.07-.23 0-32-7.53-99.64-.06a1 1 0 0 1-.25 0l-27.23-7.09-96.7-.06a1 1 0 0 1-.28 0l-23-6.68-93.93-.06a1 1 0 0 1-.31-.05l-19.15-6.3-91.31-.05a1 1 0 0 1-.35-.06l-15.69-5.95-88.83-.05a1 1 0 0 1-.41-.09l-12.56-5.61-86.46 0a1 1 0 0 1-.48-.12l-9.71-5.29-84.2 0a1 1 0 0 1-.57-.18l-7.12-5-82 0a1 1 0 0 1-.69-.28l-4.77-4.61-80 0a1 1 0 0 1 0-2h0l80.36 0a1 1 0 0 1 .69.28l4.77 4.61 82 0a1 1 0 0 1 .57.18l7.12 5 84.15 0a1 1 0 0 1 .48.12l9.71 5.29 86.42 0a1 1 0 0 1 .41.09l12.56 5.61 88.79.05a1 1 0 0 1 .35.06l15.69 5.95 91.29.05a1 1 0 0 1 .31.05l19.15 6.3 93.91.06a1 1 0 0 1 .28 0l23 6.68 96.69.06a1 1 0 0 1 .25 0l27.23 7.09 99.63.06.23 0 32 7.53 102.75.07.21 0 37.21 8 106.06.07.19 0 43.11 8.54L3444.94 809l.18 0 49.72 9.12 113.34.08h.17l57.17 9.77 117.37.09H3783l57.62 9.21A1 1 0 0 1 3840.5 839.36ZM80.13 747.79l-79.63 0a1 1 0 0 1 0-2h0l79.58 0 89.31-9.92h.11l159.13.08a1 1 0 0 1 0 2h0l-159.08-.08-89.31 9.92H80.13ZM73.91 808.65.5 808.6a1 1 0 0 1 0-2h0l73.33.05 58.81-8.41h.14l104.39.07 52.1-7.9h.15l101.3.07L436.79 783h.16l98.38.06 40.62-7h.17l95.62.06 35.71-6.63.18 0 93 .06 31.26-6.27.2 0 90.54.05 27.22-5.94.21 0 88.19.05 23.56-5.63.23 0 86 0 20.21-5.34a.83.83 0 0 1 .26 0l83.83 0 33.64-9.95c.09 0 .22 0 .28 0l160.07.08a1 1 0 0 1 0 2h0l-159.92-.08-33.64 9.95a1 1 0 0 1-.28 0l-83.85 0-20.21 5.34a1 1 0 0 1-.26 0l-86 0-23.56 5.63-.23 0-88.2-.05L923 765.26l-.21 0-90.55-.05-31.26 6.27-.2 0-93-.06L672 778.09l-.18 0L576.2 778l-40.62 7h-.17L437 785 391 792.45H390.8l-101.3-.07-52.1 7.9h-.15l-104.4-.07L74 808.64H73.91ZM3840.5 1144.54h0l-37.38-.06a1 1 0 0 1-.31 0l-328.13-107.92-781.9-257.14-1541.53-1L.78 1118.59a1 1 0 0 1-.57-1.92L1150.82 776.45a1 1 0 0 1 .28 0l1541.83 1a1 1 0 0 1 .31.05l1110 365.06 37.22.06A1 1 0 0 1 3840.5 1144.54ZM69.24 758.81l-68.74 0a1 1 0 0 1 0-2h0l68.68 0 48.35-5.62h.12l85.6 0 43.8-5.34a.26.26 0 0 1 .12 0l83.51 0 39.64-5.08h.13l163.12.09 33.88-4.84a1 1 0 1 1 .28 2l-33.95 4.85h-.14l-163.13-.09-39.64 5.08h-.13l-83.51 0-43.8 5.34h-.12l-85.6 0-48.35 5.62H69.24Z" style="fill:#f0f"/><path d="M3840.5 1103.9h0l-3840-5.65a1 1 0 0 1 0-2h0l3840 5.65A1 1 0 0 1 3840.5 1103.9ZM3840.5 941.7h-7.09l-.21 0L3225.54 810.89 613.71 809 .7 931.95a1 1 0 1 1-.39-2L613.41 807.05l.2 0 2612 1.86.21 0 607.66 130.78h7A1 1 0 0 1 3840.5 941.7Z" style="fill:#f0f"/><path d="M3840.5 923.3h0L.5 919.46a1 1 0 0 1 0-2h0l3840 3.84A1 1 0 0 1 3840.5 923.3ZM.5 836.22a1 1 0 0 1-.15-2L59 825.33h.15l115.19.09 59.41-9.6H234l111.43.08 52-9h.17L505.45 807l45.38-8.42.18 0 104.6.07 39.46-7.91.2 0 101.49.07 34.14-7.44.21 0 98.55.06 29.36-7 .23 0 95.77.06 25.06-6.62a1 1 0 0 1 .26 0l93.15.06 21.17-6.26a1 1 0 0 1 .28 0l90.65.05 17.64-5.92a1 1 0 0 1 .32-.05l88.28.05 14.44-5.6a1 1 0 0 1 .36-.07h0l86 .05 11.53-5.29a1 1 0 0 1 .42-.09l83.86 0 17.55-9.88a1 1 0 0 1 .49-.13h0l160.33.08a1 1 0 0 1 0 2h0l-160.07-.08-17.54 9.88a1 1 0 0 1-.49.13l-83.9 0-11.53 5.29a1 1 0 0 1-.42.09l-86.06-.05-14.44 5.6a1 1 0 0 1-.36.07l-88.31-.05-17.64 5.92a1 1 0 0 1-.32.05l-90.67-.05-21.17 6.26a1 1 0 0 1-.28 0l-93.16-.06-25.06 6.62a1 1 0 0 1-.26 0l-95.79-.06-29.37 7-.23 0-98.56-.06-34.14 7.44-.21 0-101.49-.07-39.45 7.91a.41.41 0 0 1-.2 0l-104.61-.07-45.38 8.42-.18 0-107.91-.08-52 9h-.17L234 817.8l-59.41 9.6h-.16l-115.2-.09L.65 836.21H.5Z" style="fill:#f0f"/><path d="m59.19 827.32-58.69 0a1 1 0 0 1 0-2h0l58.62 0 63.23-9.59h.15l111.37.08 55.57-9h.16l107.85.08 48.74-8.42h.17l104.55.07 42.62-7.91.18 0 101.44.07 37.13-7.44.2 0L831 783.27l32.18-7 .21 0 95.74.06 27.73-6.63.23 0 93.12.06 23.69-6.26a1 1 0 0 1 .26 0l90.63.05 20-5.92a1 1 0 0 1 .28 0l88.27.05 16.73-5.61a2.18 2.18 0 0 1 .32-.05l86 0 13.71-5.32a1 1 0 0 1 .36-.07h0l83.87 0 11-5a1 1 0 0 1 .42-.09h0l163.85.09 6.45-4.69a1 1 0 0 1 1.18 1.62l-6.71 4.88a1 1 0 0 1-.59.19l-164-.09-11 5a1 1 0 0 1-.42.09l-83.9 0L1407 753.84a1 1 0 0 1-.36.07h0l-86 0-16.73 5.61a1 1 0 0 1-.32.05h0l-88.29-.05-20 5.92a1 1 0 0 1-.28 0l-90.65-.05-23.69 6.26a1.54 1.54 0 0 1-.26 0l-93.13-.06-27.73 6.63-.23 0-95.75-.06-32.18 7-.21 0-98.52-.06-37.13 7.44a.67.67 0 0 1-.2 0l-101.45-.07-42.62 7.91-.18 0-104.56-.07-48.74 8.42h-.17l-107.86-.08-55.57 9H234l-111.38-.08L59.34 827.3H59.19ZM3840.5 739.79h0l-58 0a1 1 0 0 1 0-2h0l58 0A1 1 0 0 1 3840.5 739.79ZM57.14 771.06.5 771a1 1 0 0 1 0-2h0l56.58 0 51.29-6.26h.12l90.24.05L245 756.92h.13L333 757l41.62-5.63h.13l85.71 0 37.4-5.35H498l83.61 0 65.55-9.94a.44.44 0 0 1 .15 0l159.53.08a1 1 0 0 1 0 2h0l-159.45-.08-65.55 9.94h-.15l-83.61 0-37.4 5.35h-.14l-85.71 0L333.2 759a.53.53 0 0 0-.13 0l-87.92-.05-46.23 5.93h-.13l-90.24-.05-51.29 6.26H57.14ZM.5 747.34a1 1 0 0 1-.1-2l44-4.67a.37.37 0 0 0 .11 0l162.86.09 41.61-4.84a1 1 0 1 1 .23 2l-41.67 4.85h-.12l-162.86-.09L.61 747.33H.5Z" style="fill:#f0f"/><path d="M44.47 742.67h0l-44 0a1 1 0 0 1 0-2h0l43.91 0 45.47-4.84a1 1 0 0 1 .21 2l-45.52 4.84H44.47ZM.5 790.28a1 1 0 0 1-.13-2l43.1-5.53a.32.32 0 0 1 .13 0l98.19.06 51.82-7h.13l95.45.06 46.3-6.62h.14l92.85.06L469.8 763h.15l90.39.05 36.75-5.94h.16l88.06.05 32.61-5.63h.17l85.84 0 28.83-5.35.18 0 83.73 0 49.63-10a.46.46 0 0 1 .2 0l159.8.08a1 1 0 0 1 0 2h0l-159.7-.08-49.63 10-.2 0-83.74 0-28.83 5.35-.18 0-85.85 0-32.61 5.63h-.17l-88.07-.05-36.75 5.94h-.16L470 765l-41.3 6.26h-.15l-92.86-.06-46.3 6.62h-.14l-95.45-.06-51.82 7h-.13l-98.2-.06-43 5.52H.5Z" style="fill:#f0f"/><path d="m43.6 784.75-43.1 0a1 1 0 0 1 0-2h0l43 0 54.61-7h.13l95.4.06 48.95-6.62h.13l92.81.06 43.8-6.26h.14L469.87 763 509 757.08a.33.33 0 0 1 .15 0l88 .05L632 751.49h.16l85.81 0 31-5.35h.17l83.7 0 27.42-5.09.18 0L1024 741.19l22.21-4.84a1 1 0 1 1 .43 2l-22.32 4.87a.73.73 0 0 1-.21 0l-163.52-.09-27.42 5.09-.18 0-83.71 0-31 5.35h-.17l-85.81 0-34.86 5.63h-.16l-88-.05L470.1 765h-.15L379.59 765l-43.8 6.26h-.14l-92.81-.06-48.95 6.62h-.13l-95.41-.06-54.61 7H43.6ZM3840.5 860h-.17l-47.71-8.16L42.37 848.75.66 855.49a1 1 0 0 1-.32-2l41.79-6.75h.16l3750.41 3.06h.17l47.8 8.17A1 1 0 0 1 3840.5 860Z" style="fill:#f0f"/><path d="M3840.5 851.85h0l-47.8 0h-.17l-65.85-11.26L110.81 837.7l-68.36 11H42.29l-41.79 0a1 1 0 0 1 0-2h0l41.71 0 68.36-11h.16l3616 2.84h.17l65.85 11.26 47.71 0A1 1 0 0 1 3840.5 851.85ZM3840.5 981.46l-.23 0-83.14-19.59-3717-4.09-39.45 8.6a1 1 0 0 1-.43-2l39.55-8.63.21 0 3717.19 4.1.23 0 83.25 19.61A1 1 0 0 1 3840.5 981.46Z" style="fill:#f0f"/><path d="M3840.5,961.94h0l-83.25-.09-0.23,0L3079.68,802.26l-2319.1-1.59L40.27,957.73a0.71,0.71,0,0,1-.21,0l-39.56,0a1,1,0,0,1,0-2h0l39.45,0L760.26,798.69l0.21,0,2319.33,1.59,0.23,0,677.34,159.56,83.14,0.09A1,1,0,0,1,3840.5,961.94Z" style="fill:#f0f"/><path d="M3840.5,1246.31h0l-11.8,0a1,1,0,0,1-.35-0.06L3558.65,1144,3451,1103.26l-176.87-67-139.37-52.8L2578.32,772.6l-1311.19-.8L0.82,1196.67a1,1,0,1,1-.64-1.9L1266.65,769.85a1,1,0,0,1,.32-0.05l1311.54,0.8a1,1,0,0,1,.35.06l1250,473.63,11.62,0A1,1,0,0,1,3840.5,1246.31Z" style="fill:#f0f"/><path d="M3840.5 1191.49h0L.5 1185a1 1 0 0 1 0-2h0l3840 6.53A1 1 0 0 1 3840.5 1191.49ZM.5 756.64a1 1 0 0 1-.11-2l31.52-3.5H32l85.57 0 45.93-5.34h.12l83.47 0L328.51 736h.12L487.9 736a1 1 0 0 1 0 2h0l-159.2-.08-81.41 9.93h-.12l-83.48 0-45.93 5.34h-.12l-85.57 0-31.47 3.5H.5Z" style="fill:#f0f"/><path d="m32 753.14-31.52 0a1 1 0 0 1 0-2h0l31.47 0L80 745.8h.11l83.44 0 43.69-5.08h.12l163 .09L408.12 736a1 1 0 1 1 .25 2l-37.81 4.85h-.13l-163-.09-43.69 5.08h-.12l-83.44 0-48.06 5.34H32ZM.5 803.93a1 1 0 0 1-.13-2l27.87-3.77h.13l104.34.07 55.25-7.9a.42.42 0 0 1 .14 0l101.25.07 49-7.43h.15L436.87 783l43.43-7h.16L576 776l38.36-6.63a.37.37 0 0 1 .17 0l93 .06 33.78-6.27.18 0 90.5.05 29.61-5.94.2 0L950 757.32l25.82-5.63.21 0 85.93 0 22.37-5.35.23 0 83.81 0 19.22-5.08a1 1 0 0 1 .25 0h0l163.73.09 14.37-4.82a1 1 0 1 1 .64 1.9L1352 743.31a1 1 0 0 1-.32.05h0L1188 743.28l-19.22 5.08a1 1 0 0 1-.25 0h0l-83.82 0-22.37 5.35-.23 0-85.94 0-25.82 5.63-.21 0-88.17-.05-29.61 5.94a.38.38 0 0 1-.2 0l-90.51-.05-33.78 6.27a.44.44 0 0 1-.18 0l-93-.06L576.29 778h-.17L480.53 778l-43.43 7h-.16l-98.33-.06-49 7.43h-.15l-101.25-.07-55.25 7.9h-.14l-104.35-.07L.63 803.92H.5Z" style="fill:#f0f"/><path d="m28.37 800.16-27.87 0a1 1 0 0 1 0-2h0l27.81 0 58.39-7.89h.13L188 790.33l52-7.43h.14l98.29.06 46.23-7h.15L480.38 776l41-6.63h.16l92.93.06 36.29-6.27h.17l90.46.05 32-5.94.18 0 88.12.05 28.09-5.63.2 0 85.9.05 24.53-5.35.21 0 83.78 0 41.65-10 .23 0 159.93.08a1 1 0 0 1 0 2h0l-159.81-.08-41.65 10a.43.43 0 0 1-.23 0l-83.79 0-24.53 5.35a1.38 1.38 0 0 0-.21 0l-85.91-.05L862 759.25l-.2 0-88.13-.05-32 5.94-.18 0L651 765.12l-36.29 6.27h-.17l-92.94-.06-41 6.63h-.16l-95.54-.06-46.23 7h-.15l-98.29-.06-52 7.43H188.1l-101.2-.07-58.39 7.89H28.37ZM3840.5 1965.36h0l-979.44-3.64a1 1 0 0 1-.84-.47l-130.58-206.52-97.47-154.17L2087.38 738.89l-79.19 2.38-81.69 2.4-82-.17-77.27-4.77L932.76 1596 585.3 1953a1 1 0 0 1-.72.3h0L20 1951.17 1.09 1964.93a1 1 0 1 1-1.18-1.62l19.18-14a1 1 0 0 1 .59-.19h0l564.47 2.1L1766.12 737a1 1 0 0 1 .78-.3l77.66 4.8 81.92.17 81.65-2.4 79.76-2.4a1 1 0 0 1 .88.47l772.85 1222.39 978.89 3.64A1 1 0 0 1 3840.5 1965.36Z" style="fill:#f0f"/><path d="M3840.5,883.63l-0.18,0L3804,877,22.76,873.62,0.67,877.44a1,1,0,1,1-.34-2l22.18-3.83h0.17L3804.08,875l0.18,0,36.42,6.68A1,1,0,0,1,3840.5,883.63Z" style="fill:#f0f"/><path d="M3840.5,877h0l-36.42,0-0.18,0-256-47-3258-2.47-267,46.12H22.67l-22.18,0a1,1,0,0,1,0-2h0l22.09,0,267-46.12h0.17L3548,828l0.18,0,256,47,36.33,0A1,1,0,0,1,3840.5,877Z" style="fill:#f0f"/><path d="M3638.23 2161a1 1 0 0 1-.7-.28l-203.8-197.15-214.07-207.1-159.72-154.54-123.78-119.74L2172.93 743.81l-81.92 0-81.66 2.52-83.72 2.52-252.42-.14L20.27 1951a.89.89 0 0 1-.59.19L.5 1951.1a1 1 0 0 1 0-2l18.86.07 1497.18-1089L1672.3 746.86a1 1 0 0 1 .59-.19l252.71.14 83.69-2.52 81.69-2.52 82.35 0a1 1 0 0 1 .69.28l1464.9 1417.19A1 1 0 0 1 3638.23 2161ZM.5 766.81a1 1 0 0 1-.11-2l17.73-2.06h.12l90.2.05L157 756.87h.12L245 756.92l43.86-5.62H289l85.67 0L414.21 746h.13l83.57 0 35.57-5.09h.14L696.89 741l30-4.85a1 1 0 0 1 .32 2L697.13 743a.38.38 0 0 0-.16 0l-163.26-.09L498.13 748H498l-83.58 0-39.53 5.35h-.13l-85.67 0-43.86 5.62h-.13l-87.88-.05-48.59 5.93h-.12l-90.2-.05L.62 766.8H.5Z" style="fill:#f0f"/><path d="M18.23 764.75H.5a1 1 0 0 1 0-2H18.17l51-5.93a.24.24 0 0 0 .12 0l87.84.05 46.1-5.62h.12l85.64.05 41.67-5.34h.13l83.54 0L487.77 736h.13l159.4.08a1 1 0 0 1 0 2h0L488 738 414.48 748h-.13l-83.54 0-41.67 5.34a.4.4 0 0 0-.13 0l-85.64-.05-46.1 5.63h-.12l-87.84-.05-51 5.93H18.23ZM3840.5 1027.69a1 1 0 0 1-.25 0L3769 1009.12l-3756.36-4.6-11.91 2.85a1 1 0 1 1-.46-1.94l12-2.87.23 0 3756.61 4.6a1 1 0 0 1 .25 0l71.37 18.57A1 1 0 0 1 3840.5 1027.69Z" style="fill:#f0f"/><path d="M3840.5 1009.21h0l-71.37-.09a1 1 0 0 1-.25 0L2942.8 794.16 898.62 792.8 12.76 1004.49l-.23 0-12 0a1 1 0 0 1 0-2H12.41L898.27 790.83l.23 0 2044.42 1.36a1 1 0 0 1 .25 0l826.09 214.92 71.24.09A1 1 0 0 1 3840.5 1009.21ZM.5 819.15a1 1 0 0 1-.14-2L11 815.64h.14l111.31.08 59.15-9h.15l107.8.08 52.1-8.41h.16l104.5.07 45.78-7.91h.17l101.4.07 40.11-7.44.18 0 98.47.07 35-7a.7.7 0 0 1 .2 0l95.7.06 30.39-6.63.21 0L987 769.63l26.22-6.27.23 0 90.6.05 22.44-5.93a1 1 0 0 1 .26 0l88.24.05 19-5.62a1 1 0 0 1 .28 0l86 0 15.88-5.33a1 1 0 0 1 .32-.05h0l83.86 0 25.61-9.93a1 1 0 0 1 .36-.07l160.2.08a1 1 0 0 1 0 2h0l-160-.08-25.61 9.93a1 1 0 0 1-.36.07h0l-83.89 0-15.88 5.33a1 1 0 0 1-.32.05l-86 0-19 5.62a1 1 0 0 1-.28 0l-88.26-.05-22.44 5.93a1 1 0 0 1-.26 0l-90.61-.05-26.22 6.27-.23 0L894 771.57l-30.39 6.63-.21 0-95.71-.06-35 7-.2 0L634 785.14l-40.11 7.44-.18 0-101.4-.07-45.78 7.91h-.17l-104.5-.07-52.1 8.41H289.6l-107.8-.08-59.15 9H122.5l-111.32-.08L.64 819.14H.5Z" style="fill:#f0f"/><path d="M11.11 817.63H.5a1 1 0 0 1 0-2H11l62.73-9h.14l107.74.08 55.46-8.41a.38.38 0 0 1 .15 0l104.45.07 48.94-7.9h.16l101.35.07 43.09-7.44h.17l98.42.06 37.81-7 .18 0 95.66.06 33.05-6.63.2 0 93 .06 28.74-6.27.21 0 90.57.05 24.84-5.94.23 0 88.22.05 21.28-5.63a1 1 0 0 1 .26 0l86 0 18.05-5.34a1 1 0 0 1 .28 0l83.85 0 15.1-5.07a1 1 0 0 1 .32-.05l163.82.09 10.43-4.79a1 1 0 0 1 .83 1.82l-10.63 4.88a1 1 0 0 1-.42.09l-163.88-.09-15.1 5.07a1 1 0 0 1-.32.05l-83.87 0-18.05 5.34a1 1 0 0 1-.28 0l-86 0L1127 759.39a1 1 0 0 1-.26 0l-88.23-.05-24.84 5.94-.23 0-90.58-.05-28.74 6.27-.21 0-93.05-.06-33.05 6.63-.2 0-95.67-.06-37.81 7-.18 0-98.43-.06-43.09 7.44h-.17l-101.35-.07-48.94 7.9h-.16l-104.45-.07-55.46 8.41h-.15L74 808.65l-62.73 9H11.11ZM.5 738.8a1 1 0 0 1-.1-2l10-1h.1l159 .08a1 1 0 0 1 0 2h0l-158.95-.08-10 1H.5ZM2335.88 2161a1 1 0 0 1-1-.78L2007.75 742.94a1.05 1.05 0 0 1 0-.12l-.22-2.22a1 1 0 1 1 2-.2l.22 2.16 170.09 736.83 157.06 680.39a1 1 0 0 1-.75 1.2ZM1684.71 2161h-.17a1 1 0 0 1-.82-1.15L1925.49 742.51a1.16 1.16 0 0 1 0-.14l1-3.17a1 1 0 1 1 1.9.62l-1 3.11-172 1008.35-69.75 408.9A1 1 0 0 1 1684.71 2161ZM.5 778a1 1 0 0 1-.12-2l2.36-.29H2.86l95.36.06 51.58-6.62a.25.25 0 0 1 .13 0l92.77.06 46.3-6.26h.13L379.45 763 420.94 757h.14l88 .05 37.12-5.63h.15l85.77 0 33.12-5.35h.16l83.67 0 57.6-9.95h.17l159.67.08a1 1 0 0 1 0 2h0l-159.58-.08-57.6 9.95a.3.3 0 0 1-.17 0l-83.68 0-33.12 5.35h-.16l-85.78 0-37.12 5.63h-.15l-88-.05L379.66 765h-.14l-90.32-.05-46.3 6.26h-.13L150 771.12l-51.58 6.62H98.28l-95.36-.06-2.3.28H.5Z" style="fill:#f0f"/><path d="M2.86,777.68H0.5a1,1,0,0,1,0-2H2.8L57,769.07h0.12l92.73,0.05,48.8-6.26h0.13l90.28,0.05L332.93,757h0.13L421,757l39.37-5.63h0.14l85.74,0,35.26-5.35h0.15l83.64,0,31.5-5.09H697l163.39,0.09,26.11-4.85a1,1,0,0,1,.37,2l-26.2,4.86-0.18,0L697.05,743l-31.5,5.09h-0.16l-83.64,0-35.26,5.35h-0.15l-85.74,0L421.23,759h-0.14l-88-.05-43.87,5.93h-0.13l-90.28-.05-48.8,6.26h-0.13l-92.73-.05L3,777.68H2.86Z" style="fill:#f0f"/><rect width="3840" height="745" style="fill:url(#Áåçûìÿííûé_ãðàäèåíò_13);mix-blend-mode:color-dodge"/><rect width="3840" height="1424" y="736" style="fill:url(#Áåçûìÿííûé_ãðàäèåíò_13-2);mix-blend-mode:color-dodge"/></g></g></svg>